<?xml version="1.0" encoding="utf-8"?>
<!-- Generator: Adobe Illustrator 22.1.0, SVG Export Plug-In . SVG Version: 6.00 Build 0)  -->
<svg version="1.1" id="Layer_1" xmlns="http://www.w3.org/2000/svg" xmlns:xlink="http://www.w3.org/1999/xlink" x="0px" y="0px"
	 viewBox="0 0 163.3 160" style="enable-background:new 0 0 163.3 160;" xml:space="preserve">
<g>
	<polygon points="148.1,77.9 153.7,78.4 148.4,76.7 	"/>
	<path d="M137.4,39l3.6,0.7c0,0-3.3-1.5-4.5-1.9C136.9,38.4,137.4,39,137.4,39z"/>
	<path d="M159.5,61.2c-4.3-17.2-13.9-32.1-28-42.9C117.9,7.8,101,2,83.9,2l0,0v0c-6.3,0-12.6,0.8-18.8,2.3
		C23.4,14.6-2.2,57,8.1,98.7c4.3,17.2,13.9,32.1,28,42.9c13.6,10.5,30.5,16.3,47.6,16.3c6.3,0,12.6-0.8,18.8-2.3
		c20.2-5,37.3-17.6,48-35.4C161.3,102.4,164.5,81.5,159.5,61.2z M66.8,11.3c5.7-1.4,11.4-2.1,17.1-2.1c4.8,0,9.5,0.5,14.1,1.4
		l2.4,1.9c1.4,1.1,2.5,2.4,3.3,3.7c-6.9,0.9-13.8,3.3-20.7,7.1c-4.8-1-10.7-1.6-16.1-1.6c-2.8,0-5.4,0.2-7.8,0.4
		c-1.5-2.5-2.9-4.7-4.3-6.8C58.6,13.7,62.6,12.3,66.8,11.3z M86.3,53c6.1,3.3,14.7,8.4,22.6,14.9c0.3,8.6-0.1,16.6-1.1,25
		c-7,4.5-16,9.1-24.3,12.5c-8.2-4.3-15.9-9.3-21-13.4c-0.9-9.7-0.4-20,1.3-27.8C71.1,59.9,77.9,56.5,86.3,53z M55.7,92
		c-4.9,3.4-12.2,8.5-15.9,11.1c-6.3-3.5-14.3-10.9-17.9-16.5c-0.8-6.2-0.5-13.6,0.9-19.8c0,0,0,0,0,0c5.4-5.8,12.3-11.1,19.6-14.9
		c1.3,1.1,2.7,2.2,4.1,3.3c3.4,2.7,6.9,5.6,10.5,8.6C55.3,71.9,54.8,82.1,55.7,92z M48.7,18.5c0,0.1,0.1,0.2,0.1,0.3
		c1.4,2,2.7,4.2,4.2,6.6c-5.2,5.3-10.1,13-12.8,20c-6.8,3.4-13.3,8-18.9,13.2c-1-1.5-1.7-3.2-2.2-5.1l-0.3-1.5
		C24.9,38,35.2,26.2,48.7,18.5z M43,137.8C30.9,129.3,21.5,117,16.6,102l0.4-1.7c0.4-1.9,1.4-3.8,2.7-5.5c5,5.9,12,11.6,17.9,14.7
		c1.2,3.7,4.8,13.5,10.3,20.7L43,137.8z M93.4,149.2l-1.3,1.1c-2.8,0.3-5.6,0.5-8.4,0.5c-12.5,0-24.5-3.3-35-9.3l4.8-7.5
		c4.9,1.1,10.4,1.7,16.3,1.7c2.5,0,5.1-0.1,7.7-0.3c5.3,4.1,12.8,7.8,19.6,9.8C96.2,146.6,94.9,147.9,93.4,149.2z M122.9,129.6
		c-5.3,3.8-11.9,7.2-19.6,10c-7.5-1.3-15.8-5.5-20.8-9.1c1.5-6.9,2.8-13.4,3.8-18.9c8.6-3.5,17.6-8.1,24.9-12.8
		c4.9,2.3,11.5,5.4,16.6,7.9C127.9,113.1,126.7,122.5,122.9,129.6z M130.2,56.3c-5.6,1.9-13.5,4.7-17.4,6.1
		c-8.1-6.7-16.9-11.9-23.1-15.2C89,41,88.3,35,87.4,28.8c7.7-4,15.5-6.2,22.8-6.2l0.3,0c6.2,2.9,12,6.8,16.6,10.9
		C129.3,41.3,130.4,49.3,130.2,56.3z M136.3,127.4l-1.8,0.4c-1,0.3-2.1,0.4-3.1,0.4c-0.1,0-0.3,0-0.4,0c2.6-6.8,3.9-15.1,3.6-22.7
		C140,99,144,92.6,146.9,86l7.3,0.7c0,0,0,0,0.1,0C152.8,101.9,146.4,116.2,136.3,127.4z M147.1,79.1c-2.7-7.6-5.4-13.9-10.1-21
		c0.4-8.2-0.9-16.3-2.2-22.1c1.1,0.1,2.3,0.4,3.7,1l2.5,1.1c5.3,7.2,9.3,15.6,11.6,24.8c1.4,5.6,2.1,11.3,2.1,16.9L147.1,79.1z"/>
</g>
</svg>
